M48
; DRILL file KiCad 10.0.0 date 2026-04-01T14:18:07
; FORMAT={-:-/ absolute / metric / decimal}
; #@! TF.CreationDate,2026-04-01T14:18:07+02:00
; #@! TF.GenerationSoftware,Kicad,Pcbnew,10.0.0
; #@! TF.FileFunction,Plated,1,2,PTH
FMAT,2
METRIC
; #@! TA.AperFunction,Plated,PTH,ViaDrill
T1C0.500
; #@! TA.AperFunction,Plated,PTH,ComponentDrill
T2C1.300
%
G90
G05
T1
X148.075Y-138.8
X148.2Y-131.7
X148.2Y-133.025
X148.2Y-134.2
X148.2Y-135.525
X148.225Y-128.3
X148.4Y-136.5
X148.4Y-137.825
X149.4Y-138.8
X149.55Y-128.3
X150.725Y-138.8
X150.875Y-128.3
X152.0Y-129.3
X152.05Y-138.8
X152.2Y-128.3
X153.325Y-129.3
X153.375Y-138.8
X153.525Y-128.3
X154.875Y-124.0
X155.1Y-128.8
X155.1Y-130.125
X155.7Y-126.4
X155.7Y-127.725
X155.8Y-138.6
X155.8Y-139.925
X156.2Y-124.0
X157.525Y-124.0
X158.85Y-124.0
X159.3Y-138.8
X159.3Y-140.125
X159.4Y-126.3
X159.4Y-127.625
X159.8Y-128.8
X159.8Y-130.125
X160.175Y-124.0
X161.6Y-139.0
X161.6Y-140.325
X161.6Y-141.65
X161.8Y-126.5
X161.8Y-127.825
X161.8Y-129.15
X162.6Y-140.8
X163.925Y-140.8
X164.6Y-123.625
X164.6Y-124.95
X164.6Y-126.275
X164.6Y-127.6
X164.6Y-128.925
X165.25Y-140.8
X165.9Y-131.1
X165.9Y-132.425
X166.5Y-140.8
X166.775Y-137.7
X167.825Y-140.8
X168.1Y-137.7
X169.15Y-140.8
X169.425Y-137.7
X170.2Y-140.1
X170.2Y-141.3
X170.4Y-124.5
X170.75Y-137.7
X171.0Y-128.1
X171.525Y-140.1
X171.525Y-141.3
X171.725Y-124.5
X172.075Y-137.7
X172.325Y-128.1
X172.85Y-140.1
X172.85Y-141.3
X174.1Y-140.1
X174.1Y-141.3
X175.3Y-124.775
X175.3Y-126.1
X175.3Y-127.425
X175.425Y-140.1
X175.425Y-141.3
X175.65Y-129.1
X175.65Y-132.8
X176.75Y-140.1
X176.75Y-141.3
X176.975Y-129.1
X176.975Y-132.8
X177.5Y-127.6
X178.05Y-141.3
X178.3Y-129.1
X178.3Y-132.8
X178.825Y-127.6
X179.375Y-141.3
X179.55Y-132.9
X180.15Y-127.6
X180.7Y-141.3
X180.875Y-132.9
X181.475Y-127.6
X181.95Y-141.3
X182.2Y-132.9
X182.8Y-127.6
X183.275Y-141.3
X184.6Y-141.3
T2
X180.167Y-131.065
X180.167Y-136.145
M30
