%TF.GenerationSoftware,KiCad,Pcbnew,10.0.0*%
%TF.CreationDate,2026-04-01T14:18:03+02:00*%
%TF.ProjectId,3v3-5v_regulator,3376332d-3576-45f7-9265-67756c61746f,rev?*%
%TF.SameCoordinates,Original*%
%TF.FileFunction,Copper,L2,Bot*%
%TF.FilePolarity,Positive*%
%FSLAX46Y46*%
G04 Gerber Fmt 4.6, Leading zero omitted, Abs format (unit mm)*
G04 Created by KiCad (PCBNEW 10.0.0) date 2026-04-01 14:18:03*
%MOMM*%
%LPD*%
G01*
G04 APERTURE LIST*
G04 Aperture macros list*
%AMRoundRect*
0 Rectangle with rounded corners*
0 $1 Rounding radius*
0 $2 $3 $4 $5 $6 $7 $8 $9 X,Y pos of 4 corners*
0 Add a 4 corners polygon primitive as box body*
4,1,4,$2,$3,$4,$5,$6,$7,$8,$9,$2,$3,0*
0 Add four circle primitives for the rounded corners*
1,1,$1+$1,$2,$3*
1,1,$1+$1,$4,$5*
1,1,$1+$1,$6,$7*
1,1,$1+$1,$8,$9*
0 Add four rect primitives between the rounded corners*
20,1,$1+$1,$2,$3,$4,$5,0*
20,1,$1+$1,$4,$5,$6,$7,0*
20,1,$1+$1,$6,$7,$8,$9,0*
20,1,$1+$1,$8,$9,$2,$3,0*%
G04 Aperture macros list end*
%TA.AperFunction,ComponentPad*%
%ADD10C,2.600000*%
%TD*%
%TA.AperFunction,ComponentPad*%
%ADD11RoundRect,0.250000X1.050000X-1.050000X1.050000X1.050000X-1.050000X1.050000X-1.050000X-1.050000X0*%
%TD*%
%TA.AperFunction,ViaPad*%
%ADD12C,0.800000*%
%TD*%
G04 APERTURE END LIST*
D10*
%TO.P,J2,2,Pin_2_2*%
%TO.N,GND*%
X180167500Y-131065000D03*
D11*
%TO.P,J2,1,Pin_1_1*%
%TO.N,+3.3V*%
X180167500Y-136145000D03*
%TD*%
D12*
%TO.N,GND*%
X165250000Y-140800000D03*
X163925000Y-140800000D03*
X167825000Y-140800000D03*
X166500000Y-140800000D03*
X169150000Y-140800000D03*
X162600000Y-140800000D03*
X172850000Y-140100000D03*
X171525000Y-140100000D03*
X175425000Y-140100000D03*
X174100000Y-140100000D03*
X176750000Y-140100000D03*
X170200000Y-140100000D03*
X172850000Y-141300000D03*
X171525000Y-141300000D03*
X175425000Y-141300000D03*
X174100000Y-141300000D03*
X176750000Y-141300000D03*
X170200000Y-141300000D03*
X180700000Y-141300000D03*
X178050000Y-141300000D03*
X179375000Y-141300000D03*
X184600000Y-141300000D03*
X181950000Y-141300000D03*
X183275000Y-141300000D03*
X153325000Y-129300000D03*
X152000000Y-129300000D03*
X155100000Y-130125000D03*
X155100000Y-128800000D03*
X159800000Y-130125000D03*
X159800000Y-128800000D03*
X155700000Y-127725000D03*
X155700000Y-126400000D03*
X159400000Y-127625000D03*
X159400000Y-126300000D03*
X148400000Y-137825000D03*
X148400000Y-136500000D03*
X148200000Y-135525000D03*
X148200000Y-134200000D03*
X148200000Y-133025000D03*
X148200000Y-131700000D03*
X165900000Y-132425000D03*
X165900000Y-131100000D03*
X172325000Y-128100000D03*
X171000000Y-128100000D03*
X155800000Y-139925000D03*
X155800000Y-138600000D03*
X159300000Y-140125000D03*
X159300000Y-138800000D03*
X171725000Y-124500000D03*
X170400000Y-124500000D03*
X178300000Y-129100000D03*
X175650000Y-129100000D03*
X176975000Y-129100000D03*
X182200000Y-132900000D03*
X179550000Y-132900000D03*
X180875000Y-132900000D03*
X178300000Y-132800000D03*
X175650000Y-132800000D03*
X176975000Y-132800000D03*
X161800000Y-126500000D03*
X161800000Y-129150000D03*
X161800000Y-127825000D03*
X175300000Y-124775000D03*
X175300000Y-127425000D03*
X175300000Y-126100000D03*
X161600000Y-139000000D03*
X161600000Y-141650000D03*
X161600000Y-140325000D03*
X153375000Y-138800000D03*
X149400000Y-138800000D03*
X152050000Y-138800000D03*
X148075000Y-138800000D03*
X150725000Y-138800000D03*
X148225000Y-128300000D03*
X152200000Y-128300000D03*
X149550000Y-128300000D03*
X153525000Y-128300000D03*
X150875000Y-128300000D03*
X160175000Y-124000000D03*
X156200000Y-124000000D03*
X158850000Y-124000000D03*
X154875000Y-124000000D03*
X157525000Y-124000000D03*
X164600000Y-123625000D03*
X164600000Y-127600000D03*
X164600000Y-124950000D03*
X164600000Y-128925000D03*
X164600000Y-126275000D03*
X172075000Y-137700000D03*
X168100000Y-137700000D03*
X170750000Y-137700000D03*
X166775000Y-137700000D03*
X169425000Y-137700000D03*
X177500000Y-127600000D03*
X178825000Y-127600000D03*
X180150000Y-127600000D03*
X181475000Y-127600000D03*
X182800000Y-127600000D03*
%TD*%
%TA.AperFunction,Conductor*%
%TO.N,GND*%
G36*
X186042539Y-122820184D02*
G01*
X186088294Y-122872988D01*
X186099500Y-122924499D01*
X186099500Y-142275500D01*
X186079815Y-142342539D01*
X186027011Y-142388294D01*
X185975500Y-142399500D01*
X147424500Y-142399500D01*
X147357461Y-142379815D01*
X147311706Y-142327011D01*
X147300500Y-142275500D01*
X147300500Y-135044983D01*
X178367000Y-135044983D01*
X178367000Y-137245001D01*
X178367001Y-137245018D01*
X178377500Y-137347796D01*
X178377501Y-137347799D01*
X178432685Y-137514331D01*
X178432686Y-137514334D01*
X178524788Y-137663656D01*
X178648844Y-137787712D01*
X178798166Y-137879814D01*
X178964703Y-137934999D01*
X179067491Y-137945500D01*
X181267508Y-137945499D01*
X181370297Y-137934999D01*
X181536834Y-137879814D01*
X181686156Y-137787712D01*
X181810212Y-137663656D01*
X181902314Y-137514334D01*
X181957499Y-137347797D01*
X181968000Y-137245009D01*
X181967999Y-135044992D01*
X181957499Y-134942203D01*
X181902314Y-134775666D01*
X181810212Y-134626344D01*
X181686156Y-134502288D01*
X181536834Y-134410186D01*
X181370297Y-134355001D01*
X181370295Y-134355000D01*
X181267510Y-134344500D01*
X179067498Y-134344500D01*
X179067481Y-134344501D01*
X178964703Y-134355000D01*
X178964700Y-134355001D01*
X178798168Y-134410185D01*
X178798163Y-134410187D01*
X178648842Y-134502289D01*
X178524789Y-134626342D01*
X178432687Y-134775663D01*
X178432686Y-134775666D01*
X178377501Y-134942203D01*
X178377501Y-134942204D01*
X178377500Y-134942204D01*
X178367000Y-135044983D01*
X147300500Y-135044983D01*
X147300500Y-130947014D01*
X178367500Y-130947014D01*
X178367500Y-131182985D01*
X178398299Y-131416914D01*
X178459370Y-131644837D01*
X178549660Y-131862819D01*
X178549665Y-131862828D01*
X178667644Y-132067171D01*
X178667645Y-132067172D01*
X178730221Y-132148723D01*
X179566458Y-131312487D01*
X179591478Y-131372890D01*
X179662612Y-131479351D01*
X179753149Y-131569888D01*
X179859610Y-131641022D01*
X179920011Y-131666041D01*
X179083775Y-132502277D01*
X179165327Y-132564854D01*
X179165328Y-132564855D01*
X179369671Y-132682834D01*
X179369680Y-132682839D01*
X179587663Y-132773129D01*
X179587661Y-132773129D01*
X179815585Y-132834200D01*
X180049514Y-132864999D01*
X180049529Y-132865000D01*
X180285471Y-132865000D01*
X180285485Y-132864999D01*
X180519414Y-132834200D01*
X180747337Y-132773129D01*
X180965319Y-132682839D01*
X180965328Y-132682834D01*
X181169681Y-132564850D01*
X181251223Y-132502279D01*
X181251223Y-132502276D01*
X180414987Y-131666041D01*
X180475390Y-131641022D01*
X180581851Y-131569888D01*
X180672388Y-131479351D01*
X180743522Y-131372890D01*
X180768541Y-131312488D01*
X181604776Y-132148723D01*
X181604779Y-132148723D01*
X181667350Y-132067181D01*
X181785334Y-131862828D01*
X181785339Y-131862819D01*
X181875629Y-131644837D01*
X181936700Y-131416914D01*
X181967499Y-131182985D01*
X181967500Y-131182971D01*
X181967500Y-130947028D01*
X181967499Y-130947014D01*
X181936700Y-130713085D01*
X181875629Y-130485162D01*
X181785339Y-130267180D01*
X181785334Y-130267171D01*
X181667355Y-130062828D01*
X181667354Y-130062827D01*
X181604777Y-129981275D01*
X180768541Y-130817511D01*
X180743522Y-130757110D01*
X180672388Y-130650649D01*
X180581851Y-130560112D01*
X180475390Y-130488978D01*
X180414988Y-130463958D01*
X181251223Y-129627721D01*
X181169672Y-129565145D01*
X181169671Y-129565144D01*
X180965328Y-129447165D01*
X180965319Y-129447160D01*
X180747336Y-129356870D01*
X180747338Y-129356870D01*
X180519414Y-129295799D01*
X180285485Y-129265000D01*
X180049514Y-129265000D01*
X179815585Y-129295799D01*
X179587662Y-129356870D01*
X179369680Y-129447160D01*
X179369671Y-129447165D01*
X179165328Y-129565144D01*
X179165318Y-129565150D01*
X179083775Y-129627720D01*
X179083775Y-129627721D01*
X179920012Y-130463958D01*
X179859610Y-130488978D01*
X179753149Y-130560112D01*
X179662612Y-130650649D01*
X179591478Y-130757110D01*
X179566458Y-130817511D01*
X178730221Y-129981275D01*
X178730220Y-129981275D01*
X178667650Y-130062818D01*
X178667644Y-130062828D01*
X178549665Y-130267171D01*
X178549660Y-130267180D01*
X178459370Y-130485162D01*
X178398299Y-130713085D01*
X178367500Y-130947014D01*
X147300500Y-130947014D01*
X147300500Y-122924499D01*
X147320185Y-122857460D01*
X147372989Y-122811705D01*
X147424500Y-122800499D01*
X185975500Y-122800499D01*
X186042539Y-122820184D01*
G37*
%TD.AperFunction*%
%TD*%
M02*
