%TF.GenerationSoftware,KiCad,Pcbnew,10.0.0*%
%TF.CreationDate,2026-04-01T14:18:03+02:00*%
%TF.ProjectId,3v3-5v_regulator,3376332d-3576-45f7-9265-67756c61746f,rev?*%
%TF.SameCoordinates,Original*%
%TF.FileFunction,Legend,Top*%
%TF.FilePolarity,Positive*%
%FSLAX46Y46*%
G04 Gerber Fmt 4.6, Leading zero omitted, Abs format (unit mm)*
G04 Created by KiCad (PCBNEW 10.0.0) date 2026-04-01 14:18:03*
%MOMM*%
%LPD*%
G01*
G04 APERTURE LIST*
%ADD10C,0.200000*%
%ADD11C,0.150000*%
%ADD12C,0.120000*%
G04 APERTURE END LIST*
D10*
G36*
X179474435Y-125509974D02*
G01*
X179474435Y-125957796D01*
X179455590Y-125967219D01*
X179312328Y-125967219D01*
X179252718Y-125937414D01*
X179228051Y-125912746D01*
X179198245Y-125853134D01*
X179198245Y-125614635D01*
X179228050Y-125555025D01*
X179252718Y-125530356D01*
X179312328Y-125500552D01*
X179455590Y-125500552D01*
X179474435Y-125509974D01*
G37*
G36*
X178595137Y-125522707D02*
G01*
X178612587Y-125557607D01*
X178341102Y-125611904D01*
X178341102Y-125567016D01*
X178363257Y-125522706D01*
X178407566Y-125500552D01*
X178550828Y-125500552D01*
X178595137Y-125522707D01*
G37*
G36*
X181807769Y-125957796D02*
G01*
X181788924Y-125967219D01*
X181598043Y-125967219D01*
X181553733Y-125945064D01*
X181531579Y-125900754D01*
X181531579Y-125852730D01*
X181553734Y-125808420D01*
X181598043Y-125786266D01*
X181807769Y-125786266D01*
X181807769Y-125957796D01*
G37*
G36*
X183277105Y-125530357D02*
G01*
X183301774Y-125555025D01*
X183331579Y-125614635D01*
X183331579Y-125853135D01*
X183301774Y-125912743D01*
X183277105Y-125937413D01*
X183217496Y-125967219D01*
X183121853Y-125967219D01*
X183062243Y-125937414D01*
X183037576Y-125912746D01*
X183007770Y-125853134D01*
X183007770Y-125614635D01*
X183037575Y-125555025D01*
X183062243Y-125530356D01*
X183121853Y-125500552D01*
X183217496Y-125500552D01*
X183277105Y-125530357D01*
G37*
G36*
X184355055Y-126611663D02*
G01*
X177411410Y-126611663D01*
X177411410Y-125400552D01*
X177569673Y-125400552D01*
X177569673Y-126067219D01*
X177571594Y-126086728D01*
X177586526Y-126122776D01*
X177614116Y-126150366D01*
X177650164Y-126165298D01*
X177689182Y-126165298D01*
X177725230Y-126150366D01*
X177752820Y-126122776D01*
X177767752Y-126086728D01*
X177769673Y-126067219D01*
X177769673Y-125614635D01*
X177799478Y-125555025D01*
X177811094Y-125543409D01*
X178141102Y-125543409D01*
X178141102Y-125924361D01*
X178143023Y-125943870D01*
X178144398Y-125947190D01*
X178144653Y-125950773D01*
X178151659Y-125969082D01*
X178199278Y-126064321D01*
X178201331Y-126067584D01*
X178201845Y-126069123D01*
X178203507Y-126071039D01*
X178209721Y-126080911D01*
X178219192Y-126089125D01*
X178227409Y-126098600D01*
X178237279Y-126104812D01*
X178239197Y-126106476D01*
X178240737Y-126106989D01*
X178244000Y-126109043D01*
X178339237Y-126156662D01*
X178357546Y-126163668D01*
X178361129Y-126163922D01*
X178364450Y-126165298D01*
X178383959Y-126167219D01*
X178574435Y-126167219D01*
X178593944Y-126165298D01*
X178597264Y-126163922D01*
X178600848Y-126163668D01*
X178619156Y-126156662D01*
X178714394Y-126109043D01*
X178730984Y-126098600D01*
X178756549Y-126069123D01*
X178768887Y-126032107D01*
X178766122Y-125993187D01*
X178748673Y-125958289D01*
X178719196Y-125932724D01*
X178682180Y-125920385D01*
X178643260Y-125923151D01*
X178624951Y-125930157D01*
X178550828Y-125967219D01*
X178407566Y-125967219D01*
X178363256Y-125945064D01*
X178341102Y-125900754D01*
X178341102Y-125815865D01*
X178736798Y-125736726D01*
X178736801Y-125736726D01*
X178736803Y-125736724D01*
X178736903Y-125736705D01*
X178755657Y-125730995D01*
X178763797Y-125725543D01*
X178772849Y-125721794D01*
X178779850Y-125714792D01*
X178788076Y-125709284D01*
X178793510Y-125701132D01*
X178800439Y-125694204D01*
X178804228Y-125685056D01*
X178809720Y-125676819D01*
X178811621Y-125667208D01*
X178815371Y-125658156D01*
X178817292Y-125638647D01*
X178817292Y-125591028D01*
X178998245Y-125591028D01*
X178998245Y-125876742D01*
X179000166Y-125896251D01*
X179001541Y-125899571D01*
X179001796Y-125903155D01*
X179008802Y-125921463D01*
X179056421Y-126016701D01*
X179061704Y-126025093D01*
X179062716Y-126027537D01*
X179064972Y-126030286D01*
X179066864Y-126033291D01*
X179068858Y-126035020D01*
X179075153Y-126042690D01*
X179122771Y-126090310D01*
X179130439Y-126096603D01*
X179132171Y-126098600D01*
X179135179Y-126100493D01*
X179137925Y-126102747D01*
X179140365Y-126103757D01*
X179148762Y-126109043D01*
X179243999Y-126156662D01*
X179262308Y-126163668D01*
X179265891Y-126163922D01*
X179269212Y-126165298D01*
X179288721Y-126167219D01*
X179474435Y-126167219D01*
X179474435Y-126186469D01*
X179444630Y-126246078D01*
X179419961Y-126270746D01*
X179360352Y-126300552D01*
X179264709Y-126300552D01*
X179190585Y-126263490D01*
X179172277Y-126256484D01*
X179133357Y-126253718D01*
X179096341Y-126266057D01*
X179066864Y-126291621D01*
X179049415Y-126326520D01*
X179046649Y-126365440D01*
X179058988Y-126402456D01*
X179084552Y-126431933D01*
X179101143Y-126442376D01*
X179196380Y-126489995D01*
X179214689Y-126497001D01*
X179218272Y-126497255D01*
X179221593Y-126498631D01*
X179241102Y-126500552D01*
X179383959Y-126500552D01*
X179403468Y-126498631D01*
X179406788Y-126497255D01*
X179410372Y-126497001D01*
X179428680Y-126489995D01*
X179523918Y-126442376D01*
X179532314Y-126437090D01*
X179534754Y-126436080D01*
X179537500Y-126433826D01*
X179540508Y-126431933D01*
X179542237Y-126429938D01*
X179549908Y-126423644D01*
X179597526Y-126376025D01*
X179603818Y-126368358D01*
X179605816Y-126366626D01*
X179607709Y-126363617D01*
X179609963Y-126360872D01*
X179610973Y-126358431D01*
X179616259Y-126350035D01*
X179663878Y-126254798D01*
X179670884Y-126236489D01*
X179671138Y-126232905D01*
X179672514Y-126229585D01*
X179674435Y-126210076D01*
X179674435Y-125400552D01*
X179950626Y-125400552D01*
X179950626Y-125924361D01*
X179952547Y-125943870D01*
X179953922Y-125947190D01*
X179954177Y-125950773D01*
X179961183Y-125969082D01*
X180008802Y-126064321D01*
X180010855Y-126067584D01*
X180011369Y-126069123D01*
X180013031Y-126071039D01*
X180019245Y-126080911D01*
X180028716Y-126089125D01*
X180036933Y-126098600D01*
X180046803Y-126104812D01*
X180048721Y-126106476D01*
X180050261Y-126106989D01*
X180053524Y-126109043D01*
X180148761Y-126156662D01*
X180167070Y-126163668D01*
X180170653Y-126163922D01*
X180173974Y-126165298D01*
X180193483Y-126167219D01*
X180336340Y-126167219D01*
X180355849Y-126165298D01*
X180359169Y-126163922D01*
X180362753Y-126163668D01*
X180381061Y-126156662D01*
X180413644Y-126140370D01*
X180423640Y-126150366D01*
X180459688Y-126165298D01*
X180498706Y-126165298D01*
X180534754Y-126150366D01*
X180562344Y-126122776D01*
X180577276Y-126086728D01*
X180579197Y-126067219D01*
X180579197Y-125400552D01*
X180577276Y-125381043D01*
X180562344Y-125344995D01*
X180534754Y-125317405D01*
X180498706Y-125302473D01*
X180459688Y-125302473D01*
X180423640Y-125317405D01*
X180396050Y-125344995D01*
X180381118Y-125381043D01*
X180379197Y-125400552D01*
X180379197Y-125930559D01*
X180372342Y-125937413D01*
X180312733Y-125967219D01*
X180217090Y-125967219D01*
X180172780Y-125945064D01*
X180150626Y-125900754D01*
X180150626Y-125400552D01*
X180148705Y-125381043D01*
X180133773Y-125344995D01*
X180106183Y-125317405D01*
X180070135Y-125302473D01*
X180031117Y-125302473D01*
X179995069Y-125317405D01*
X179967479Y-125344995D01*
X179952547Y-125381043D01*
X179950626Y-125400552D01*
X179674435Y-125400552D01*
X179672514Y-125381043D01*
X179657582Y-125344995D01*
X179629992Y-125317405D01*
X179593944Y-125302473D01*
X179554926Y-125302473D01*
X179528521Y-125313410D01*
X179523918Y-125311109D01*
X179505610Y-125304103D01*
X179502026Y-125303848D01*
X179498706Y-125302473D01*
X179479197Y-125300552D01*
X179288721Y-125300552D01*
X179269212Y-125302473D01*
X179265891Y-125303848D01*
X179262308Y-125304103D01*
X179243999Y-125311109D01*
X179148762Y-125358728D01*
X179140365Y-125364013D01*
X179137925Y-125365024D01*
X179135179Y-125367277D01*
X179132171Y-125369171D01*
X179130438Y-125371168D01*
X179122772Y-125377461D01*
X179075153Y-125425079D01*
X179068858Y-125432749D01*
X179066864Y-125434479D01*
X179064970Y-125437486D01*
X179062717Y-125440233D01*
X179061706Y-125442672D01*
X179056421Y-125451069D01*
X179008802Y-125546307D01*
X179001796Y-125564615D01*
X179001541Y-125568198D01*
X179000166Y-125571519D01*
X178998245Y-125591028D01*
X178817292Y-125591028D01*
X178817292Y-125543409D01*
X178815371Y-125523900D01*
X178813995Y-125520579D01*
X178813741Y-125516996D01*
X178806735Y-125498687D01*
X178759116Y-125403450D01*
X178757061Y-125400186D01*
X178756549Y-125398648D01*
X178754887Y-125396732D01*
X178748673Y-125386859D01*
X178739197Y-125378641D01*
X178730984Y-125369171D01*
X178721112Y-125362957D01*
X178719196Y-125361295D01*
X178717657Y-125360781D01*
X178714394Y-125358728D01*
X178619156Y-125311109D01*
X178600848Y-125304103D01*
X178597264Y-125303848D01*
X178593944Y-125302473D01*
X178574435Y-125300552D01*
X178383959Y-125300552D01*
X178364450Y-125302473D01*
X178361129Y-125303848D01*
X178357546Y-125304103D01*
X178339237Y-125311109D01*
X178244000Y-125358728D01*
X178240736Y-125360782D01*
X178239198Y-125361295D01*
X178237282Y-125362956D01*
X178227409Y-125369171D01*
X178219191Y-125378646D01*
X178209721Y-125386860D01*
X178203507Y-125396731D01*
X178201845Y-125398648D01*
X178201331Y-125400186D01*
X178199278Y-125403450D01*
X178151659Y-125498688D01*
X178144653Y-125516996D01*
X178144398Y-125520579D01*
X178143023Y-125523900D01*
X178141102Y-125543409D01*
X177811094Y-125543409D01*
X177824146Y-125530356D01*
X177883756Y-125500552D01*
X177955387Y-125500552D01*
X177974896Y-125498631D01*
X178010944Y-125483699D01*
X178038534Y-125456109D01*
X178053466Y-125420061D01*
X178053466Y-125381043D01*
X178038534Y-125344995D01*
X178010944Y-125317405D01*
X177974896Y-125302473D01*
X177955387Y-125300552D01*
X177860149Y-125300552D01*
X177840640Y-125302473D01*
X177837319Y-125303848D01*
X177833736Y-125304103D01*
X177815427Y-125311109D01*
X177751098Y-125343273D01*
X177725230Y-125317405D01*
X177689182Y-125302473D01*
X177650164Y-125302473D01*
X177614116Y-125317405D01*
X177586526Y-125344995D01*
X177571594Y-125381043D01*
X177569673Y-125400552D01*
X177411410Y-125400552D01*
X177411410Y-125067219D01*
X180855388Y-125067219D01*
X180855388Y-125924361D01*
X180857309Y-125943870D01*
X180858684Y-125947190D01*
X180858939Y-125950773D01*
X180865945Y-125969082D01*
X180913564Y-126064321D01*
X180915617Y-126067584D01*
X180916131Y-126069123D01*
X180917793Y-126071039D01*
X180924007Y-126080911D01*
X180933478Y-126089125D01*
X180941695Y-126098600D01*
X180951565Y-126104812D01*
X180953483Y-126106476D01*
X180955023Y-126106989D01*
X180958286Y-126109043D01*
X181053523Y-126156662D01*
X181071832Y-126163668D01*
X181110752Y-126166434D01*
X181147768Y-126154095D01*
X181177245Y-126128530D01*
X181194694Y-126093632D01*
X181197459Y-126054712D01*
X181185121Y-126017696D01*
X181159556Y-125988219D01*
X181142966Y-125977776D01*
X181077542Y-125945064D01*
X181055388Y-125900754D01*
X181055388Y-125829123D01*
X181331579Y-125829123D01*
X181331579Y-125924361D01*
X181333500Y-125943870D01*
X181334875Y-125947190D01*
X181335130Y-125950773D01*
X181342136Y-125969082D01*
X181389755Y-126064321D01*
X181391808Y-126067584D01*
X181392322Y-126069123D01*
X181393984Y-126071039D01*
X181400198Y-126080911D01*
X181409669Y-126089125D01*
X181417886Y-126098600D01*
X181427756Y-126104812D01*
X181429674Y-126106476D01*
X181431214Y-126106989D01*
X181434477Y-126109043D01*
X181529714Y-126156662D01*
X181548023Y-126163668D01*
X181551606Y-126163922D01*
X181554927Y-126165298D01*
X181574436Y-126167219D01*
X181812531Y-126167219D01*
X181832040Y-126165298D01*
X181835360Y-126163922D01*
X181838944Y-126163668D01*
X181857252Y-126156662D01*
X181861855Y-126154360D01*
X181888260Y-126165298D01*
X181927278Y-126165298D01*
X181963326Y-126150366D01*
X181990916Y-126122776D01*
X182005848Y-126086728D01*
X182007769Y-126067219D01*
X182007769Y-125543409D01*
X182005848Y-125523900D01*
X182004472Y-125520579D01*
X182004218Y-125516996D01*
X181997212Y-125498687D01*
X181949593Y-125403450D01*
X181947538Y-125400186D01*
X181947026Y-125398648D01*
X181945364Y-125396732D01*
X181939150Y-125386859D01*
X181932444Y-125381043D01*
X182143024Y-125381043D01*
X182143024Y-125420061D01*
X182157956Y-125456109D01*
X182185546Y-125483699D01*
X182221594Y-125498631D01*
X182241103Y-125500552D01*
X182283960Y-125500552D01*
X182283960Y-125924361D01*
X182285881Y-125943870D01*
X182287256Y-125947190D01*
X182287511Y-125950773D01*
X182294517Y-125969082D01*
X182342136Y-126064321D01*
X182344189Y-126067584D01*
X182344703Y-126069123D01*
X182346365Y-126071039D01*
X182352579Y-126080911D01*
X182362050Y-126089125D01*
X182370267Y-126098600D01*
X182380137Y-126104812D01*
X182382055Y-126106476D01*
X182383595Y-126106989D01*
X182386858Y-126109043D01*
X182482095Y-126156662D01*
X182500404Y-126163668D01*
X182503987Y-126163922D01*
X182507308Y-126165298D01*
X182526817Y-126167219D01*
X182622055Y-126167219D01*
X182641564Y-126165298D01*
X182677612Y-126150366D01*
X182705202Y-126122776D01*
X182720134Y-126086728D01*
X182720134Y-126047710D01*
X182705202Y-126011662D01*
X182677612Y-125984072D01*
X182641564Y-125969140D01*
X182622055Y-125967219D01*
X182550424Y-125967219D01*
X182506114Y-125945064D01*
X182483960Y-125900754D01*
X182483960Y-125591028D01*
X182807770Y-125591028D01*
X182807770Y-125876742D01*
X182809691Y-125896251D01*
X182811066Y-125899571D01*
X182811321Y-125903155D01*
X182818327Y-125921463D01*
X182865946Y-126016701D01*
X182871229Y-126025093D01*
X182872241Y-126027537D01*
X182874497Y-126030286D01*
X182876389Y-126033291D01*
X182878383Y-126035020D01*
X182884678Y-126042690D01*
X182932296Y-126090310D01*
X182939964Y-126096603D01*
X182941696Y-126098600D01*
X182944704Y-126100493D01*
X182947450Y-126102747D01*
X182949890Y-126103757D01*
X182958287Y-126109043D01*
X183053524Y-126156662D01*
X183071833Y-126163668D01*
X183075416Y-126163922D01*
X183078737Y-126165298D01*
X183098246Y-126167219D01*
X183241103Y-126167219D01*
X183260612Y-126165298D01*
X183263932Y-126163922D01*
X183267516Y-126163668D01*
X183285824Y-126156662D01*
X183381062Y-126109043D01*
X183389457Y-126103758D01*
X183391899Y-126102747D01*
X183394646Y-126100491D01*
X183397652Y-126098600D01*
X183399382Y-126096605D01*
X183407052Y-126090310D01*
X183454671Y-126042690D01*
X183460963Y-126035023D01*
X183462960Y-126033292D01*
X183464853Y-126030284D01*
X183467108Y-126027537D01*
X183468119Y-126025095D01*
X183473403Y-126016701D01*
X183521022Y-125921464D01*
X183528028Y-125903155D01*
X183528282Y-125899571D01*
X183529658Y-125896251D01*
X183531579Y-125876742D01*
X183531579Y-125591028D01*
X183529658Y-125571519D01*
X183528282Y-125568198D01*
X183528028Y-125564615D01*
X183521022Y-125546306D01*
X183473403Y-125451069D01*
X183468117Y-125442672D01*
X183467107Y-125440232D01*
X183464853Y-125437486D01*
X183462960Y-125434478D01*
X183460962Y-125432745D01*
X183454670Y-125425079D01*
X183430144Y-125400552D01*
X183760151Y-125400552D01*
X183760151Y-126067219D01*
X183762072Y-126086728D01*
X183777004Y-126122776D01*
X183804594Y-126150366D01*
X183840642Y-126165298D01*
X183879660Y-126165298D01*
X183915708Y-126150366D01*
X183943298Y-126122776D01*
X183958230Y-126086728D01*
X183960151Y-126067219D01*
X183960151Y-125614635D01*
X183989956Y-125555025D01*
X184014624Y-125530356D01*
X184074234Y-125500552D01*
X184145865Y-125500552D01*
X184165374Y-125498631D01*
X184201422Y-125483699D01*
X184229012Y-125456109D01*
X184243944Y-125420061D01*
X184243944Y-125381043D01*
X184229012Y-125344995D01*
X184201422Y-125317405D01*
X184165374Y-125302473D01*
X184145865Y-125300552D01*
X184050627Y-125300552D01*
X184031118Y-125302473D01*
X184027797Y-125303848D01*
X184024214Y-125304103D01*
X184005905Y-125311109D01*
X183941576Y-125343273D01*
X183915708Y-125317405D01*
X183879660Y-125302473D01*
X183840642Y-125302473D01*
X183804594Y-125317405D01*
X183777004Y-125344995D01*
X183762072Y-125381043D01*
X183760151Y-125400552D01*
X183430144Y-125400552D01*
X183407052Y-125377460D01*
X183399381Y-125371165D01*
X183397652Y-125369171D01*
X183394644Y-125367277D01*
X183391898Y-125365024D01*
X183389458Y-125364013D01*
X183381062Y-125358728D01*
X183285824Y-125311109D01*
X183267516Y-125304103D01*
X183263932Y-125303848D01*
X183260612Y-125302473D01*
X183241103Y-125300552D01*
X183098246Y-125300552D01*
X183078737Y-125302473D01*
X183075416Y-125303848D01*
X183071833Y-125304103D01*
X183053524Y-125311109D01*
X182958287Y-125358728D01*
X182949890Y-125364013D01*
X182947450Y-125365024D01*
X182944704Y-125367277D01*
X182941696Y-125369171D01*
X182939963Y-125371168D01*
X182932297Y-125377461D01*
X182884678Y-125425079D01*
X182878383Y-125432749D01*
X182876389Y-125434479D01*
X182874495Y-125437486D01*
X182872242Y-125440233D01*
X182871231Y-125442672D01*
X182865946Y-125451069D01*
X182818327Y-125546307D01*
X182811321Y-125564615D01*
X182811066Y-125568198D01*
X182809691Y-125571519D01*
X182807770Y-125591028D01*
X182483960Y-125591028D01*
X182483960Y-125500552D01*
X182622055Y-125500552D01*
X182641564Y-125498631D01*
X182677612Y-125483699D01*
X182705202Y-125456109D01*
X182720134Y-125420061D01*
X182720134Y-125381043D01*
X182705202Y-125344995D01*
X182677612Y-125317405D01*
X182641564Y-125302473D01*
X182622055Y-125300552D01*
X182483960Y-125300552D01*
X182483960Y-125067219D01*
X182482039Y-125047710D01*
X182467107Y-125011662D01*
X182439517Y-124984072D01*
X182403469Y-124969140D01*
X182364451Y-124969140D01*
X182328403Y-124984072D01*
X182300813Y-125011662D01*
X182285881Y-125047710D01*
X182283960Y-125067219D01*
X182283960Y-125300552D01*
X182241103Y-125300552D01*
X182221594Y-125302473D01*
X182185546Y-125317405D01*
X182157956Y-125344995D01*
X182143024Y-125381043D01*
X181932444Y-125381043D01*
X181929674Y-125378641D01*
X181921461Y-125369171D01*
X181911589Y-125362957D01*
X181909673Y-125361295D01*
X181908134Y-125360781D01*
X181904871Y-125358728D01*
X181809633Y-125311109D01*
X181791325Y-125304103D01*
X181787741Y-125303848D01*
X181784421Y-125302473D01*
X181764912Y-125300552D01*
X181574436Y-125300552D01*
X181554927Y-125302473D01*
X181551606Y-125303848D01*
X181548023Y-125304103D01*
X181529714Y-125311109D01*
X181434477Y-125358728D01*
X181417886Y-125369171D01*
X181392322Y-125398648D01*
X181379983Y-125435664D01*
X181382749Y-125474584D01*
X181400198Y-125509483D01*
X181429675Y-125535047D01*
X181466691Y-125547386D01*
X181505611Y-125544620D01*
X181523919Y-125537614D01*
X181598043Y-125500552D01*
X181741305Y-125500552D01*
X181785614Y-125522707D01*
X181807769Y-125567016D01*
X181807769Y-125576843D01*
X181788924Y-125586266D01*
X181574436Y-125586266D01*
X181554927Y-125588187D01*
X181551606Y-125589562D01*
X181548023Y-125589817D01*
X181529714Y-125596823D01*
X181434477Y-125644442D01*
X181431213Y-125646496D01*
X181429675Y-125647009D01*
X181427759Y-125648670D01*
X181417886Y-125654885D01*
X181409668Y-125664360D01*
X181400198Y-125672574D01*
X181393984Y-125682445D01*
X181392322Y-125684362D01*
X181391808Y-125685900D01*
X181389755Y-125689164D01*
X181342136Y-125784402D01*
X181335130Y-125802710D01*
X181334875Y-125806293D01*
X181333500Y-125809614D01*
X181331579Y-125829123D01*
X181055388Y-125829123D01*
X181055388Y-125067219D01*
X181053467Y-125047710D01*
X181038535Y-125011662D01*
X181010945Y-124984072D01*
X180974897Y-124969140D01*
X180935879Y-124969140D01*
X180899831Y-124984072D01*
X180872241Y-125011662D01*
X180857309Y-125047710D01*
X180855388Y-125067219D01*
X177411410Y-125067219D01*
X177411410Y-123943118D01*
X177522521Y-123943118D01*
X177523975Y-123947936D01*
X177523975Y-123952974D01*
X177529571Y-123966483D01*
X177533792Y-123980473D01*
X177536979Y-123984369D01*
X177538907Y-123989022D01*
X177549243Y-123999358D01*
X177558499Y-124010671D01*
X177562936Y-124013051D01*
X177566497Y-124016612D01*
X177580002Y-124022206D01*
X177592883Y-124029116D01*
X177597892Y-124029616D01*
X177602545Y-124031544D01*
X177617166Y-124031544D01*
X177631707Y-124032998D01*
X177636526Y-124031544D01*
X177641563Y-124031544D01*
X177655072Y-124025947D01*
X177669062Y-124021727D01*
X177672958Y-124018539D01*
X177677611Y-124016612D01*
X177692765Y-124004176D01*
X177728908Y-123968031D01*
X177788518Y-123938227D01*
X177979399Y-123938227D01*
X178039008Y-123968032D01*
X178063677Y-123992700D01*
X178093482Y-124052310D01*
X178093482Y-124243191D01*
X178063677Y-124302799D01*
X178039008Y-124327469D01*
X177979399Y-124357275D01*
X177788518Y-124357275D01*
X177728908Y-124327470D01*
X177692765Y-124291326D01*
X177677612Y-124278889D01*
X177641564Y-124263958D01*
X177602546Y-124263957D01*
X177566497Y-124278888D01*
X177538907Y-124306478D01*
X177523976Y-124342526D01*
X177523975Y-124381544D01*
X177538906Y-124417593D01*
X177551343Y-124432746D01*
X177598961Y-124480366D01*
X177606629Y-124486659D01*
X177608361Y-124488656D01*
X177611369Y-124490549D01*
X177614115Y-124492803D01*
X177616555Y-124493813D01*
X177624952Y-124499099D01*
X177720189Y-124546718D01*
X177738498Y-124553724D01*
X177742081Y-124553978D01*
X177745402Y-124555354D01*
X177764911Y-124557275D01*
X178003006Y-124557275D01*
X178022515Y-124555354D01*
X178025835Y-124553978D01*
X178029419Y-124553724D01*
X178047727Y-124546718D01*
X178142965Y-124499099D01*
X178151360Y-124493814D01*
X178153802Y-124492803D01*
X178156549Y-124490547D01*
X178159555Y-124488656D01*
X178161285Y-124486661D01*
X178168955Y-124480366D01*
X178216574Y-124432746D01*
X178222866Y-124425079D01*
X178224863Y-124423348D01*
X178226756Y-124420340D01*
X178229011Y-124417593D01*
X178230022Y-124415151D01*
X178235306Y-124406757D01*
X178282925Y-124311520D01*
X178289931Y-124293211D01*
X178290185Y-124289627D01*
X178291561Y-124286307D01*
X178293482Y-124266798D01*
X178293482Y-124028703D01*
X178291561Y-124009194D01*
X178290185Y-124005873D01*
X178289931Y-124002290D01*
X178282925Y-123983981D01*
X178235306Y-123888744D01*
X178230020Y-123880347D01*
X178229010Y-123877907D01*
X178226756Y-123875161D01*
X178224863Y-123872153D01*
X178222865Y-123870420D01*
X178216573Y-123862754D01*
X178168955Y-123815135D01*
X178161284Y-123808840D01*
X178159555Y-123806846D01*
X178156547Y-123804952D01*
X178153801Y-123802699D01*
X178151361Y-123801688D01*
X178142965Y-123796403D01*
X178047727Y-123748784D01*
X178029419Y-123741778D01*
X178025835Y-123741523D01*
X178022515Y-123740148D01*
X178003006Y-123738227D01*
X177764911Y-123738227D01*
X177745402Y-123740148D01*
X177742081Y-123741523D01*
X177741744Y-123741547D01*
X177760172Y-123557275D01*
X178145863Y-123557275D01*
X178165372Y-123555354D01*
X178201420Y-123540422D01*
X178229010Y-123512832D01*
X178243942Y-123476784D01*
X178243942Y-123469782D01*
X178379982Y-123469782D01*
X178384329Y-123488898D01*
X178717662Y-124488897D01*
X178725653Y-124506798D01*
X178730336Y-124512197D01*
X178733531Y-124518587D01*
X178743002Y-124526802D01*
X178751218Y-124536274D01*
X178757606Y-124539468D01*
X178763007Y-124544152D01*
X178774908Y-124548119D01*
X178786117Y-124553723D01*
X178793241Y-124554229D01*
X178800023Y-124556490D01*
X178812532Y-124555600D01*
X178825037Y-124556490D01*
X178831815Y-124554230D01*
X178838943Y-124553724D01*
X178850159Y-124548115D01*
X178862053Y-124544151D01*
X178867450Y-124539470D01*
X178873842Y-124536274D01*
X178882060Y-124526798D01*
X178891529Y-124518586D01*
X178894722Y-124512199D01*
X178899407Y-124506798D01*
X178907398Y-124488898D01*
X179051426Y-124056813D01*
X179381118Y-124056813D01*
X179381118Y-124095831D01*
X179396050Y-124131879D01*
X179423640Y-124159469D01*
X179459688Y-124174401D01*
X179479197Y-124176322D01*
X180241102Y-124176322D01*
X180260611Y-124174401D01*
X180296659Y-124159469D01*
X180324249Y-124131879D01*
X180339181Y-124095831D01*
X180339181Y-124056813D01*
X180324249Y-124020765D01*
X180296659Y-123993175D01*
X180260611Y-123978243D01*
X180241102Y-123976322D01*
X179479197Y-123976322D01*
X179459688Y-123978243D01*
X179423640Y-123993175D01*
X179396050Y-124020765D01*
X179381118Y-124056813D01*
X179051426Y-124056813D01*
X179240731Y-123488898D01*
X179245078Y-123469783D01*
X179242803Y-123437766D01*
X180523975Y-123437766D01*
X180523975Y-123476784D01*
X180538907Y-123512832D01*
X180566497Y-123540422D01*
X180602545Y-123555354D01*
X180622054Y-123557275D01*
X181020724Y-123557275D01*
X180832510Y-123772377D01*
X180826480Y-123780810D01*
X180824621Y-123782670D01*
X180823890Y-123784433D01*
X180821109Y-123788324D01*
X180815904Y-123803712D01*
X180809689Y-123818718D01*
X180809689Y-123822091D01*
X180808609Y-123825285D01*
X180809689Y-123841487D01*
X180809689Y-123857736D01*
X180810979Y-123860851D01*
X180811204Y-123864217D01*
X180818404Y-123878777D01*
X180824621Y-123893784D01*
X180827005Y-123896168D01*
X180828501Y-123899192D01*
X180840726Y-123909889D01*
X180852211Y-123921374D01*
X180855325Y-123922664D01*
X180857865Y-123924886D01*
X180873253Y-123930090D01*
X180888259Y-123936306D01*
X180893018Y-123936774D01*
X180894826Y-123937386D01*
X180897450Y-123937211D01*
X180907768Y-123938227D01*
X181027018Y-123938227D01*
X181086627Y-123968032D01*
X181111296Y-123992700D01*
X181141101Y-124052310D01*
X181141101Y-124243191D01*
X181111296Y-124302799D01*
X181086627Y-124327469D01*
X181027018Y-124357275D01*
X180788518Y-124357275D01*
X180728908Y-124327470D01*
X180692765Y-124291326D01*
X180677612Y-124278889D01*
X180641564Y-124263958D01*
X180602546Y-124263957D01*
X180566497Y-124278888D01*
X180538907Y-124306478D01*
X180523976Y-124342526D01*
X180523975Y-124381544D01*
X180538906Y-124417593D01*
X180551343Y-124432746D01*
X180598961Y-124480366D01*
X180606629Y-124486659D01*
X180608361Y-124488656D01*
X180611369Y-124490549D01*
X180614115Y-124492803D01*
X180616555Y-124493813D01*
X180624952Y-124499099D01*
X180720189Y-124546718D01*
X180738498Y-124553724D01*
X180742081Y-124553978D01*
X180745402Y-124555354D01*
X180764911Y-124557275D01*
X181050625Y-124557275D01*
X181070134Y-124555354D01*
X181073454Y-124553978D01*
X181077038Y-124553724D01*
X181095346Y-124546718D01*
X181190584Y-124499099D01*
X181198979Y-124493814D01*
X181201421Y-124492803D01*
X181204168Y-124490547D01*
X181207174Y-124488656D01*
X181208904Y-124486661D01*
X181216574Y-124480366D01*
X181264193Y-124432746D01*
X181270485Y-124425079D01*
X181272482Y-124423348D01*
X181274375Y-124420340D01*
X181276630Y-124417593D01*
X181277641Y-124415151D01*
X181282925Y-124406757D01*
X181291230Y-124390147D01*
X181523975Y-124390147D01*
X181523975Y-124429165D01*
X181530438Y-124444767D01*
X181538907Y-124465214D01*
X181538911Y-124465218D01*
X181551343Y-124480367D01*
X181598962Y-124527985D01*
X181614115Y-124540422D01*
X181623118Y-124544151D01*
X181650164Y-124555354D01*
X181689182Y-124555354D01*
X181725230Y-124540422D01*
X181740384Y-124527986D01*
X181788002Y-124480367D01*
X181800439Y-124465214D01*
X181807191Y-124448912D01*
X181815370Y-124429166D01*
X181815371Y-124390148D01*
X181800440Y-124354099D01*
X181788003Y-124338946D01*
X181740384Y-124291326D01*
X181725231Y-124278889D01*
X181710299Y-124272704D01*
X181689182Y-124263957D01*
X181650164Y-124263957D01*
X181639606Y-124268330D01*
X181614116Y-124278888D01*
X181614115Y-124278889D01*
X181598961Y-124291326D01*
X181551343Y-124338946D01*
X181538906Y-124354099D01*
X181528893Y-124378275D01*
X181523975Y-124390147D01*
X181291230Y-124390147D01*
X181330544Y-124311520D01*
X181337550Y-124293211D01*
X181337804Y-124289627D01*
X181339180Y-124286307D01*
X181341101Y-124266798D01*
X181341101Y-124028703D01*
X181339180Y-124009194D01*
X181337804Y-124005873D01*
X181337550Y-124002290D01*
X181330544Y-123983981D01*
X181282925Y-123888744D01*
X181277639Y-123880347D01*
X181276629Y-123877907D01*
X181274375Y-123875161D01*
X181272482Y-123872153D01*
X181270484Y-123870420D01*
X181264192Y-123862754D01*
X181216574Y-123815135D01*
X181208903Y-123808840D01*
X181207174Y-123806846D01*
X181204166Y-123804952D01*
X181201420Y-123802699D01*
X181198980Y-123801688D01*
X181190584Y-123796403D01*
X181111736Y-123756979D01*
X181316359Y-123523125D01*
X181322388Y-123514691D01*
X181324248Y-123512832D01*
X181324978Y-123511068D01*
X181327760Y-123507178D01*
X181332964Y-123491789D01*
X181339180Y-123476784D01*
X181339180Y-123473410D01*
X181340260Y-123470217D01*
X181339180Y-123454014D01*
X181339180Y-123437766D01*
X181952546Y-123437766D01*
X181952546Y-123476784D01*
X181967478Y-123512832D01*
X181995068Y-123540422D01*
X182031116Y-123555354D01*
X182050625Y-123557275D01*
X182449295Y-123557275D01*
X182261081Y-123772377D01*
X182255051Y-123780810D01*
X182253192Y-123782670D01*
X182252461Y-123784433D01*
X182249680Y-123788324D01*
X182244475Y-123803712D01*
X182238260Y-123818718D01*
X182238260Y-123822091D01*
X182237180Y-123825285D01*
X182238260Y-123841487D01*
X182238260Y-123857736D01*
X182239550Y-123860851D01*
X182239775Y-123864217D01*
X182246975Y-123878777D01*
X182253192Y-123893784D01*
X182255576Y-123896168D01*
X182257072Y-123899192D01*
X182269297Y-123909889D01*
X182280782Y-123921374D01*
X182283896Y-123922664D01*
X182286436Y-123924886D01*
X182301824Y-123930090D01*
X182316830Y-123936306D01*
X182321589Y-123936774D01*
X182323397Y-123937386D01*
X182326021Y-123937211D01*
X182336339Y-123938227D01*
X182455589Y-123938227D01*
X182515198Y-123968032D01*
X182539867Y-123992700D01*
X182569672Y-124052310D01*
X182569672Y-124243191D01*
X182539867Y-124302799D01*
X182515198Y-124327469D01*
X182455589Y-124357275D01*
X182217089Y-124357275D01*
X182157479Y-124327470D01*
X182121336Y-124291326D01*
X182106183Y-124278889D01*
X182070135Y-124263958D01*
X182031117Y-124263957D01*
X181995068Y-124278888D01*
X181967478Y-124306478D01*
X181952547Y-124342526D01*
X181952546Y-124381544D01*
X181967477Y-124417593D01*
X181979914Y-124432746D01*
X182027532Y-124480366D01*
X182035200Y-124486659D01*
X182036932Y-124488656D01*
X182039940Y-124490549D01*
X182042686Y-124492803D01*
X182045126Y-124493813D01*
X182053523Y-124499099D01*
X182148760Y-124546718D01*
X182167069Y-124553724D01*
X182170652Y-124553978D01*
X182173973Y-124555354D01*
X182193482Y-124557275D01*
X182479196Y-124557275D01*
X182498705Y-124555354D01*
X182502025Y-124553978D01*
X182505609Y-124553724D01*
X182523917Y-124546718D01*
X182619155Y-124499099D01*
X182627550Y-124493814D01*
X182629992Y-124492803D01*
X182632739Y-124490547D01*
X182635745Y-124488656D01*
X182637475Y-124486661D01*
X182645145Y-124480366D01*
X182692764Y-124432746D01*
X182699056Y-124425079D01*
X182701053Y-124423348D01*
X182702946Y-124420340D01*
X182705201Y-124417593D01*
X182706212Y-124415151D01*
X182711496Y-124406757D01*
X182759115Y-124311520D01*
X182766121Y-124293211D01*
X182766375Y-124289627D01*
X182767751Y-124286307D01*
X182769672Y-124266798D01*
X182769672Y-124028703D01*
X182767751Y-124009194D01*
X182766375Y-124005873D01*
X182766121Y-124002290D01*
X182759115Y-123983981D01*
X182711496Y-123888744D01*
X182706210Y-123880347D01*
X182705200Y-123877907D01*
X182702946Y-123875161D01*
X182701053Y-123872153D01*
X182699055Y-123870420D01*
X182692763Y-123862754D01*
X182645145Y-123815135D01*
X182637474Y-123808840D01*
X182635745Y-123806846D01*
X182632737Y-123804952D01*
X182629991Y-123802699D01*
X182627551Y-123801688D01*
X182619155Y-123796403D01*
X182540307Y-123756979D01*
X182744930Y-123523125D01*
X182750959Y-123514691D01*
X182752819Y-123512832D01*
X182753549Y-123511068D01*
X182756331Y-123507178D01*
X182761535Y-123491789D01*
X182767751Y-123476784D01*
X182767751Y-123473410D01*
X182768831Y-123470217D01*
X182768802Y-123469782D01*
X182856172Y-123469782D01*
X182860519Y-123488898D01*
X183193852Y-124488897D01*
X183201843Y-124506798D01*
X183206526Y-124512197D01*
X183209721Y-124518587D01*
X183219192Y-124526802D01*
X183227408Y-124536274D01*
X183233796Y-124539468D01*
X183239197Y-124544152D01*
X183251098Y-124548119D01*
X183262307Y-124553723D01*
X183269431Y-124554229D01*
X183276213Y-124556490D01*
X183288722Y-124555600D01*
X183301227Y-124556490D01*
X183308005Y-124554230D01*
X183315133Y-124553724D01*
X183326349Y-124548115D01*
X183338243Y-124544151D01*
X183343640Y-124539470D01*
X183350032Y-124536274D01*
X183358250Y-124526798D01*
X183367719Y-124518586D01*
X183370912Y-124512199D01*
X183375597Y-124506798D01*
X183383588Y-124488898D01*
X183716921Y-123488898D01*
X183721268Y-123469783D01*
X183718502Y-123430863D01*
X183701052Y-123395964D01*
X183671576Y-123370399D01*
X183634560Y-123358060D01*
X183595640Y-123360827D01*
X183560741Y-123378276D01*
X183535176Y-123407752D01*
X183527185Y-123425653D01*
X183288720Y-124141047D01*
X183050255Y-123425652D01*
X183042264Y-123407752D01*
X183016699Y-123378276D01*
X182981800Y-123360826D01*
X182942880Y-123358060D01*
X182905864Y-123370398D01*
X182876388Y-123395963D01*
X182858938Y-123430862D01*
X182856172Y-123469782D01*
X182768802Y-123469782D01*
X182767751Y-123454014D01*
X182767751Y-123437766D01*
X182766460Y-123434650D01*
X182766236Y-123431285D01*
X182759033Y-123416719D01*
X182752819Y-123401718D01*
X182750435Y-123399334D01*
X182748940Y-123396310D01*
X182736706Y-123385605D01*
X182725229Y-123374128D01*
X182722115Y-123372838D01*
X182719576Y-123370616D01*
X182704184Y-123365410D01*
X182689181Y-123359196D01*
X182684421Y-123358727D01*
X182682614Y-123358116D01*
X182679989Y-123358290D01*
X182669672Y-123357275D01*
X182050625Y-123357275D01*
X182031116Y-123359196D01*
X181995068Y-123374128D01*
X181967478Y-123401718D01*
X181952546Y-123437766D01*
X181339180Y-123437766D01*
X181337889Y-123434650D01*
X181337665Y-123431285D01*
X181330462Y-123416719D01*
X181324248Y-123401718D01*
X181321864Y-123399334D01*
X181320369Y-123396310D01*
X181308135Y-123385605D01*
X181296658Y-123374128D01*
X181293544Y-123372838D01*
X181291005Y-123370616D01*
X181275613Y-123365410D01*
X181260610Y-123359196D01*
X181255850Y-123358727D01*
X181254043Y-123358116D01*
X181251418Y-123358290D01*
X181241101Y-123357275D01*
X180622054Y-123357275D01*
X180602545Y-123359196D01*
X180566497Y-123374128D01*
X180538907Y-123401718D01*
X180523975Y-123437766D01*
X179242803Y-123437766D01*
X179242312Y-123430863D01*
X179224862Y-123395964D01*
X179195386Y-123370399D01*
X179158370Y-123358060D01*
X179119450Y-123360827D01*
X179084551Y-123378276D01*
X179058986Y-123407752D01*
X179050995Y-123425653D01*
X178812530Y-124141047D01*
X178574065Y-123425652D01*
X178566074Y-123407752D01*
X178540509Y-123378276D01*
X178505610Y-123360826D01*
X178466690Y-123358060D01*
X178429674Y-123370398D01*
X178400198Y-123395963D01*
X178382748Y-123430862D01*
X178379982Y-123469782D01*
X178243942Y-123469782D01*
X178243942Y-123437766D01*
X178229010Y-123401718D01*
X178201420Y-123374128D01*
X178165372Y-123359196D01*
X178145863Y-123357275D01*
X177669673Y-123357275D01*
X177662456Y-123357985D01*
X177660020Y-123357742D01*
X177657641Y-123358459D01*
X177650164Y-123359196D01*
X177636654Y-123364792D01*
X177622665Y-123369013D01*
X177618768Y-123372200D01*
X177614116Y-123374128D01*
X177603779Y-123384464D01*
X177592467Y-123393720D01*
X177590086Y-123398157D01*
X177586526Y-123401718D01*
X177580931Y-123415223D01*
X177574022Y-123428104D01*
X177572545Y-123435468D01*
X177571594Y-123437766D01*
X177571594Y-123440216D01*
X177570169Y-123447325D01*
X177522550Y-123923515D01*
X177522521Y-123943118D01*
X177411410Y-123943118D01*
X177411410Y-123246164D01*
X184355055Y-123246164D01*
X184355055Y-126611663D01*
G37*
D11*
X147866666Y-139354819D02*
X147866666Y-140069104D01*
X147866666Y-140069104D02*
X147819047Y-140211961D01*
X147819047Y-140211961D02*
X147723809Y-140307200D01*
X147723809Y-140307200D02*
X147580952Y-140354819D01*
X147580952Y-140354819D02*
X147485714Y-140354819D01*
X148866666Y-140354819D02*
X148295238Y-140354819D01*
X148580952Y-140354819D02*
X148580952Y-139354819D01*
X148580952Y-139354819D02*
X148485714Y-139497676D01*
X148485714Y-139497676D02*
X148390476Y-139592914D01*
X148390476Y-139592914D02*
X148295238Y-139640533D01*
X179766666Y-139454819D02*
X179766666Y-140169104D01*
X179766666Y-140169104D02*
X179719047Y-140311961D01*
X179719047Y-140311961D02*
X179623809Y-140407200D01*
X179623809Y-140407200D02*
X179480952Y-140454819D01*
X179480952Y-140454819D02*
X179385714Y-140454819D01*
X180195238Y-139550057D02*
X180242857Y-139502438D01*
X180242857Y-139502438D02*
X180338095Y-139454819D01*
X180338095Y-139454819D02*
X180576190Y-139454819D01*
X180576190Y-139454819D02*
X180671428Y-139502438D01*
X180671428Y-139502438D02*
X180719047Y-139550057D01*
X180719047Y-139550057D02*
X180766666Y-139645295D01*
X180766666Y-139645295D02*
X180766666Y-139740533D01*
X180766666Y-139740533D02*
X180719047Y-139883390D01*
X180719047Y-139883390D02*
X180147619Y-140454819D01*
X180147619Y-140454819D02*
X180766666Y-140454819D01*
X168038095Y-138854819D02*
X168038095Y-139664342D01*
X168038095Y-139664342D02*
X168085714Y-139759580D01*
X168085714Y-139759580D02*
X168133333Y-139807200D01*
X168133333Y-139807200D02*
X168228571Y-139854819D01*
X168228571Y-139854819D02*
X168419047Y-139854819D01*
X168419047Y-139854819D02*
X168514285Y-139807200D01*
X168514285Y-139807200D02*
X168561904Y-139759580D01*
X168561904Y-139759580D02*
X168609523Y-139664342D01*
X168609523Y-139664342D02*
X168609523Y-138854819D01*
X169609523Y-139854819D02*
X169038095Y-139854819D01*
X169323809Y-139854819D02*
X169323809Y-138854819D01*
X169323809Y-138854819D02*
X169228571Y-138997676D01*
X169228571Y-138997676D02*
X169133333Y-139092914D01*
X169133333Y-139092914D02*
X169038095Y-139140533D01*
X174433333Y-123959580D02*
X174385714Y-124007200D01*
X174385714Y-124007200D02*
X174242857Y-124054819D01*
X174242857Y-124054819D02*
X174147619Y-124054819D01*
X174147619Y-124054819D02*
X174004762Y-124007200D01*
X174004762Y-124007200D02*
X173909524Y-123911961D01*
X173909524Y-123911961D02*
X173861905Y-123816723D01*
X173861905Y-123816723D02*
X173814286Y-123626247D01*
X173814286Y-123626247D02*
X173814286Y-123483390D01*
X173814286Y-123483390D02*
X173861905Y-123292914D01*
X173861905Y-123292914D02*
X173909524Y-123197676D01*
X173909524Y-123197676D02*
X174004762Y-123102438D01*
X174004762Y-123102438D02*
X174147619Y-123054819D01*
X174147619Y-123054819D02*
X174242857Y-123054819D01*
X174242857Y-123054819D02*
X174385714Y-123102438D01*
X174385714Y-123102438D02*
X174433333Y-123150057D01*
X175338095Y-123054819D02*
X174861905Y-123054819D01*
X174861905Y-123054819D02*
X174814286Y-123531009D01*
X174814286Y-123531009D02*
X174861905Y-123483390D01*
X174861905Y-123483390D02*
X174957143Y-123435771D01*
X174957143Y-123435771D02*
X175195238Y-123435771D01*
X175195238Y-123435771D02*
X175290476Y-123483390D01*
X175290476Y-123483390D02*
X175338095Y-123531009D01*
X175338095Y-123531009D02*
X175385714Y-123626247D01*
X175385714Y-123626247D02*
X175385714Y-123864342D01*
X175385714Y-123864342D02*
X175338095Y-123959580D01*
X175338095Y-123959580D02*
X175290476Y-124007200D01*
X175290476Y-124007200D02*
X175195238Y-124054819D01*
X175195238Y-124054819D02*
X174957143Y-124054819D01*
X174957143Y-124054819D02*
X174861905Y-124007200D01*
X174861905Y-124007200D02*
X174814286Y-123959580D01*
X152833333Y-141459580D02*
X152785714Y-141507200D01*
X152785714Y-141507200D02*
X152642857Y-141554819D01*
X152642857Y-141554819D02*
X152547619Y-141554819D01*
X152547619Y-141554819D02*
X152404762Y-141507200D01*
X152404762Y-141507200D02*
X152309524Y-141411961D01*
X152309524Y-141411961D02*
X152261905Y-141316723D01*
X152261905Y-141316723D02*
X152214286Y-141126247D01*
X152214286Y-141126247D02*
X152214286Y-140983390D01*
X152214286Y-140983390D02*
X152261905Y-140792914D01*
X152261905Y-140792914D02*
X152309524Y-140697676D01*
X152309524Y-140697676D02*
X152404762Y-140602438D01*
X152404762Y-140602438D02*
X152547619Y-140554819D01*
X152547619Y-140554819D02*
X152642857Y-140554819D01*
X152642857Y-140554819D02*
X152785714Y-140602438D01*
X152785714Y-140602438D02*
X152833333Y-140650057D01*
X153690476Y-140888152D02*
X153690476Y-141554819D01*
X153452381Y-140507200D02*
X153214286Y-141221485D01*
X153214286Y-141221485D02*
X153833333Y-141221485D01*
X163559580Y-138366666D02*
X163607200Y-138414285D01*
X163607200Y-138414285D02*
X163654819Y-138557142D01*
X163654819Y-138557142D02*
X163654819Y-138652380D01*
X163654819Y-138652380D02*
X163607200Y-138795237D01*
X163607200Y-138795237D02*
X163511961Y-138890475D01*
X163511961Y-138890475D02*
X163416723Y-138938094D01*
X163416723Y-138938094D02*
X163226247Y-138985713D01*
X163226247Y-138985713D02*
X163083390Y-138985713D01*
X163083390Y-138985713D02*
X162892914Y-138938094D01*
X162892914Y-138938094D02*
X162797676Y-138890475D01*
X162797676Y-138890475D02*
X162702438Y-138795237D01*
X162702438Y-138795237D02*
X162654819Y-138652380D01*
X162654819Y-138652380D02*
X162654819Y-138557142D01*
X162654819Y-138557142D02*
X162702438Y-138414285D01*
X162702438Y-138414285D02*
X162750057Y-138366666D01*
X162654819Y-138033332D02*
X162654819Y-137414285D01*
X162654819Y-137414285D02*
X163035771Y-137747618D01*
X163035771Y-137747618D02*
X163035771Y-137604761D01*
X163035771Y-137604761D02*
X163083390Y-137509523D01*
X163083390Y-137509523D02*
X163131009Y-137461904D01*
X163131009Y-137461904D02*
X163226247Y-137414285D01*
X163226247Y-137414285D02*
X163464342Y-137414285D01*
X163464342Y-137414285D02*
X163559580Y-137461904D01*
X163559580Y-137461904D02*
X163607200Y-137509523D01*
X163607200Y-137509523D02*
X163654819Y-137604761D01*
X163654819Y-137604761D02*
X163654819Y-137890475D01*
X163654819Y-137890475D02*
X163607200Y-137985713D01*
X163607200Y-137985713D02*
X163559580Y-138033332D01*
X152933333Y-125259580D02*
X152885714Y-125307200D01*
X152885714Y-125307200D02*
X152742857Y-125354819D01*
X152742857Y-125354819D02*
X152647619Y-125354819D01*
X152647619Y-125354819D02*
X152504762Y-125307200D01*
X152504762Y-125307200D02*
X152409524Y-125211961D01*
X152409524Y-125211961D02*
X152361905Y-125116723D01*
X152361905Y-125116723D02*
X152314286Y-124926247D01*
X152314286Y-124926247D02*
X152314286Y-124783390D01*
X152314286Y-124783390D02*
X152361905Y-124592914D01*
X152361905Y-124592914D02*
X152409524Y-124497676D01*
X152409524Y-124497676D02*
X152504762Y-124402438D01*
X152504762Y-124402438D02*
X152647619Y-124354819D01*
X152647619Y-124354819D02*
X152742857Y-124354819D01*
X152742857Y-124354819D02*
X152885714Y-124402438D01*
X152885714Y-124402438D02*
X152933333Y-124450057D01*
X153314286Y-124450057D02*
X153361905Y-124402438D01*
X153361905Y-124402438D02*
X153457143Y-124354819D01*
X153457143Y-124354819D02*
X153695238Y-124354819D01*
X153695238Y-124354819D02*
X153790476Y-124402438D01*
X153790476Y-124402438D02*
X153838095Y-124450057D01*
X153838095Y-124450057D02*
X153885714Y-124545295D01*
X153885714Y-124545295D02*
X153885714Y-124640533D01*
X153885714Y-124640533D02*
X153838095Y-124783390D01*
X153838095Y-124783390D02*
X153266667Y-125354819D01*
X153266667Y-125354819D02*
X153885714Y-125354819D01*
X161333333Y-134059580D02*
X161285714Y-134107200D01*
X161285714Y-134107200D02*
X161142857Y-134154819D01*
X161142857Y-134154819D02*
X161047619Y-134154819D01*
X161047619Y-134154819D02*
X160904762Y-134107200D01*
X160904762Y-134107200D02*
X160809524Y-134011961D01*
X160809524Y-134011961D02*
X160761905Y-133916723D01*
X160761905Y-133916723D02*
X160714286Y-133726247D01*
X160714286Y-133726247D02*
X160714286Y-133583390D01*
X160714286Y-133583390D02*
X160761905Y-133392914D01*
X160761905Y-133392914D02*
X160809524Y-133297676D01*
X160809524Y-133297676D02*
X160904762Y-133202438D01*
X160904762Y-133202438D02*
X161047619Y-133154819D01*
X161047619Y-133154819D02*
X161142857Y-133154819D01*
X161142857Y-133154819D02*
X161285714Y-133202438D01*
X161285714Y-133202438D02*
X161333333Y-133250057D01*
X162285714Y-134154819D02*
X161714286Y-134154819D01*
X162000000Y-134154819D02*
X162000000Y-133154819D01*
X162000000Y-133154819D02*
X161904762Y-133297676D01*
X161904762Y-133297676D02*
X161809524Y-133392914D01*
X161809524Y-133392914D02*
X161714286Y-133440533D01*
%TO.C,J1*%
D12*
X148945000Y-137310000D02*
X148685000Y-137310000D01*
X152995000Y-137310000D02*
X151225000Y-137310000D01*
X152995000Y-137310000D02*
X152995000Y-136930000D01*
X148685000Y-129690000D02*
X148945000Y-129690000D01*
X151225000Y-129690000D02*
X152995000Y-129690000D01*
X152995000Y-129690000D02*
X152995000Y-130070000D01*
%TO.C,J2*%
X186197500Y-136585000D02*
X185587500Y-136145000D01*
X186197500Y-135705000D01*
X186197500Y-136585000D01*
G36*
X186197500Y-136585000D02*
G01*
X185587500Y-136145000D01*
X186197500Y-135705000D01*
X186197500Y-136585000D01*
G37*
X185587500Y-128405000D02*
X185587500Y-135845000D01*
X174147500Y-128405000D02*
X185587500Y-128405000D01*
X185587500Y-136445000D02*
X185587500Y-138805000D01*
X185587500Y-138805000D02*
X174147500Y-138805000D01*
X184967500Y-138805000D02*
X184967500Y-128405000D01*
X182467500Y-138805000D02*
X182467500Y-128405000D01*
X176267500Y-138805000D02*
X176267500Y-128405000D01*
X174147500Y-138805000D02*
X174147500Y-128405000D01*
%TO.C,U1*%
X163800000Y-130432500D02*
X163460000Y-129962500D01*
X164140000Y-129962500D01*
X163800000Y-130432500D01*
G36*
X163800000Y-130432500D02*
G01*
X163460000Y-129962500D01*
X164140000Y-129962500D01*
X163800000Y-130432500D01*
G37*
X171950000Y-137022500D02*
X165530000Y-137022500D01*
X171950000Y-130122500D02*
X165530000Y-130122500D01*
X165530000Y-137022500D02*
X165530000Y-136752500D01*
X165530000Y-130122500D02*
X165530000Y-130392500D01*
%TO.C,C5*%
X166565000Y-123929437D02*
X166565000Y-125215000D01*
X166565000Y-123929437D02*
X167629437Y-122865000D01*
X166565000Y-128620563D02*
X166565000Y-127335000D01*
X166565000Y-128620563D02*
X167629437Y-129685000D01*
X167629437Y-122865000D02*
X173385000Y-122865000D01*
X167629437Y-129685000D02*
X173385000Y-129685000D01*
X173385000Y-122865000D02*
X173385000Y-125215000D01*
X173385000Y-129685000D02*
X173385000Y-127335000D01*
%TO.C,C4*%
X159945563Y-134627500D02*
X158660000Y-134627500D01*
X159945563Y-134627500D02*
X161010000Y-135691937D01*
X155254437Y-134627500D02*
X156540000Y-134627500D01*
X155254437Y-134627500D02*
X154190000Y-135691937D01*
X161010000Y-135691937D02*
X161010000Y-141447500D01*
X154190000Y-135691937D02*
X154190000Y-141447500D01*
X161010000Y-141447500D02*
X158660000Y-141447500D01*
X154190000Y-141447500D02*
X156540000Y-141447500D01*
%TO.C,C3*%
X162260000Y-137192164D02*
X162260000Y-137407836D01*
X161540000Y-137192164D02*
X161540000Y-137407836D01*
%TO.C,C2*%
X155254437Y-132447500D02*
X156540000Y-132447500D01*
X155254437Y-132447500D02*
X154190000Y-131383063D01*
X159945563Y-132447500D02*
X158660000Y-132447500D01*
X159945563Y-132447500D02*
X161010000Y-131383063D01*
X154190000Y-131383063D02*
X154190000Y-125627500D01*
X161010000Y-131383063D02*
X161010000Y-125627500D01*
X154190000Y-125627500D02*
X156540000Y-125627500D01*
X161010000Y-125627500D02*
X158660000Y-125627500D01*
%TO.C,C1*%
X161440000Y-132187836D02*
X161440000Y-131972164D01*
X162160000Y-132187836D02*
X162160000Y-131972164D01*
%TD*%
M02*
